<svg width="24" height="24" fill="none" xmlns="http://www.w3.org/2000/svg">
  <path fill-rule="evenodd" clip-rule="evenodd" d="M0 0h24v24H0V0Z" fill="#fff"/>
  <path fill-rule="evenodd" clip-rule="evenodd" d="M23.334 15.27c0 .562-.356.824-.993.824h-1.218v-.563h1.218c.112 0 .206-.018.244-.056a.239.239 0 0 0 .074-.168.286.286 0 0 0-.074-.188c-.038-.037-.113-.056-.225-.056-.581-.019-1.312.019-1.312-.805 0-.375.244-.788.9-.788h1.255v.563H22.04c-.112 0-.187 0-.244.037a.268.268 0 0 0-.093.206c0 .094.056.15.13.188.076.018.151.037.245.037h.337c.356 0 .58.075.73.206.113.131.188.3.188.563Zm-2.642-.563c-.15-.131-.375-.206-.731-.206h-.337c-.094 0-.169-.019-.244-.037-.075-.038-.13-.094-.13-.188s.018-.15.093-.206c.056-.037.13-.037.243-.037h1.162v-.563h-1.255c-.675 0-.9.413-.9.788 0 .824.731.786 1.312.805.112 0 .187.019.225.056a.286.286 0 0 1 .075.188.238.238 0 0 1-.075.168.426.426 0 0 1-.244.056h-1.218v.563h1.218c.637 0 .993-.263.993-.825 0-.262-.075-.43-.187-.562Zm-2.398.843h-1.48v-.524h1.442V14.5h-1.442v-.487h1.48v-.543h-2.099v2.623h2.099v-.544Zm-2.774-1.948c-.206-.113-.45-.131-.768-.131H13.31v2.623h.637v-.956h.675c.225 0 .356.019.45.113.112.13.112.356.112.524v.319h.618v-.506c0-.244-.018-.356-.093-.487a.73.73 0 0 0-.319-.225.722.722 0 0 0 .45-.694c0-.3-.112-.468-.319-.58Zm-3.56-.131H9.955l-.805.861-.769-.861h-2.53v2.623h2.493l.806-.862.768.862h1.218v-.88h.787c.543 0 1.087-.15 1.087-.882 0-.712-.563-.861-1.05-.861Zm3.054 1.086c-.093.038-.187.038-.3.038l-.768.019v-.6h.769c.112 0 .225 0 .3.056a.238.238 0 0 1 .13.225.328.328 0 0 1-.13.262Zm-3.054.131h-.824v-.674h.824c.225 0 .375.094.375.319 0 .224-.15.355-.375.355Zm-2.417.094.974-1.03v2.117l-.974-1.087Zm-1.518.768H6.47v-.524h1.387V14.5H6.47v-.487h1.574l.693.768-.712.768Zm13.566-3.972h-.9l-1.18-1.967v1.967h-1.273l-.244-.58h-1.312l-.243.58h-.731c-.3 0-.694-.075-.918-.3-.206-.225-.319-.524-.319-.993 0-.393.056-.75.337-1.03.188-.207.525-.3.956-.3h.6v.562h-.6c-.225 0-.356.037-.487.15-.113.112-.169.318-.169.6 0 .28.056.487.169.618.093.094.262.131.43.131h.282l.899-2.061h.937l1.05 2.473V8.955h.974l1.105 1.817V8.955h.637v2.623Zm-7.438-2.623h-.637v2.623h.637V8.955Zm-1.33.112c-.207-.112-.432-.112-.75-.112H10.63v2.623h.618v-.956h.675c.225 0 .375.02.468.113.113.131.094.356.094.506v.337h.637v-.525c0-.224-.019-.337-.113-.468a.784.784 0 0 0-.3-.225.744.744 0 0 0 .45-.693c0-.3-.13-.469-.337-.6Zm-2.643 1.968H8.72v-.525h1.442v-.543H8.72v-.469h1.461v-.543H8.082v2.623h2.098v-.543Zm-2.567-2.08h-1.03l-.769 1.78-.824-1.78H3.978v2.473L2.91 8.955h-.937L.85 11.578h.674l.244-.58h1.312l.243.58h1.274V9.517l.918 2.061h.544l.918-2.061v2.061h.637V8.955Zm10.156 1.48-.431-1.03-.431 1.03h.862Zm-5.434-.412c-.094.056-.187.056-.319.056h-.768V9.5h.768c.113 0 .244 0 .319.037.075.056.112.131.112.243 0 .113-.037.206-.112.244Zm-10.343.412.43-1.03.432 1.03h-.862ZM23.184.73H.83v9.444l.768-1.743h1.63l.225.431v-.43h1.912l.43.936.413-.937h6.09c.28 0 .524.056.712.206V8.43h1.667v.206c.281-.15.637-.206 1.05-.206h2.416l.225.431v-.43h1.78l.263.43v-.43h1.742v3.672h-1.76l-.338-.562v.562h-2.192l-.244-.6h-.543l-.244.6h-1.143c-.45 0-.787-.113-1.012-.225v.225H11.96v-.844c0-.112-.018-.13-.093-.13h-.094v.974H6.526v-.469l-.187.469H5.234l-.188-.45v.45H2.93l-.225-.6h-.543l-.244.6H.83v11.074h22.354V16.45c-.243.112-.58.168-.918.168h-1.63v-.224c-.188.15-.525.224-.843.224h-5.135v-.843c0-.112-.018-.112-.112-.112h-.094v.955h-1.686v-.993c-.281.131-.6.131-.88.131h-.188v.862H9.637l-.487-.562-.544.562H5.29v-3.672h3.372l.488.562.524-.562h2.268c.262 0 .693.037.88.225v-.225h2.024c.206 0 .6.037.862.225v-.225h3.054v.225c.169-.15.487-.225.768-.225h1.705v.225c.188-.131.45-.225.787-.225h1.162V.73Z" fill="#0077A6"/>
</svg>
