<svg width="98" height="16" fill="none" xmlns="http://www.w3.org/2000/svg">
  <path fill-rule="evenodd" clip-rule="evenodd" d="M50.56.002c-4.499 0-8.143 3.53-8.143 7.857 0 4.67 3.473 8.085 8.143 8.085 4.553 0 8.141-3.473 8.141-7.97 0-4.441-3.53-7.972-8.141-7.972Z" fill="#DB8135"/>
  <path fill-rule="evenodd" clip-rule="evenodd" d="M50.56.002c-4.499 0-8.143 3.53-8.143 7.857 0 4.67 3.473 8.085 8.143 8.085 4.553 0 8.141-3.473 8.141-7.97 0-4.441-3.53-7.972-8.141-7.972Z" fill="#DB8135"/>
  <path fill-rule="evenodd" clip-rule="evenodd" d="M58.701 7.973c0-4.44-3.53-7.97-8.141-7.97-4.499 0-8.143 3.53-8.143 7.856 0 4.67 3.473 8.085 8.143 8.085 4.553 0 8.141-3.473 8.141-7.97Z" fill="#DB8135"/>
  <path fill-rule="evenodd" clip-rule="evenodd" d="M58.701 7.973c0-4.44-3.53-7.97-8.141-7.97-4.499 0-8.143 3.53-8.143 7.856 0 4.67 3.473 8.085 8.143 8.085 4.553 0 8.141-3.473 8.141-7.97Z" fill="#DB8137"/>
  <path fill-rule="evenodd" clip-rule="evenodd" d="M58.701 7.973c0-4.44-3.53-7.97-8.141-7.97-4.499 0-8.143 3.53-8.143 7.856 0 4.67 3.473 8.085 8.143 8.085 4.553 0 8.141-3.473 8.141-7.97Z" fill="#DC8337"/>
  <path fill-rule="evenodd" clip-rule="evenodd" d="M58.701 7.973c0-4.44-3.53-7.97-8.141-7.97-4.499 0-8.143 3.53-8.143 7.856 0 4.67 3.473 8.085 8.143 8.085 4.553 0 8.141-3.473 8.141-7.97Z" fill="#DC8539"/>
  <path fill-rule="evenodd" clip-rule="evenodd" d="M58.701 7.973c0-4.44-3.53-7.97-8.141-7.97-4.499 0-8.143 3.53-8.143 7.856 0 4.67 3.473 8.085 8.143 8.085 4.553 0 8.141-3.473 8.141-7.97Z" fill="#DC853A"/>
  <path fill-rule="evenodd" clip-rule="evenodd" d="M58.701 7.973c0-4.44-3.53-7.97-8.141-7.97-4.499 0-8.143 3.53-8.143 7.856 0 4.67 3.473 8.085 8.143 8.085 4.553 0 8.141-3.473 8.141-7.97Z" fill="#DC853C"/>
  <path fill-rule="evenodd" clip-rule="evenodd" d="M58.701 7.973c0-4.44-3.53-7.97-8.141-7.97-4.499 0-8.143 3.53-8.143 7.856 0 4.67 3.473 8.085 8.143 8.085 4.553 0 8.141-3.473 8.141-7.97Z" fill="#DD873E"/>
  <path fill-rule="evenodd" clip-rule="evenodd" d="M58.701 7.973c0-4.44-3.53-7.97-8.141-7.97-4.499 0-8.143 3.53-8.143 7.856 0 4.67 3.473 8.085 8.143 8.085 4.553 0 8.141-3.473 8.141-7.97Z" fill="#DD873E"/>
  <path fill-rule="evenodd" clip-rule="evenodd" d="M58.701 7.973c0-4.44-3.53-7.97-8.141-7.97-4.499 0-8.143 3.53-8.143 7.856 0 4.67 3.473 8.085 8.143 8.085 4.553 0 8.141-3.473 8.141-7.97Z" fill="#DD883F"/>
  <path fill-rule="evenodd" clip-rule="evenodd" d="M58.701 7.973c0-4.44-3.53-7.97-8.141-7.97-4.499 0-8.143 3.53-8.143 7.856 0 4.67 3.473 8.085 8.143 8.085 4.553 0 8.141-3.473 8.141-7.97Z" fill="#DD8841"/>
  <path fill-rule="evenodd" clip-rule="evenodd" d="M58.701 7.973c0-4.44-3.53-7.97-8.141-7.97-4.499 0-8.143 3.53-8.143 7.856 0 4.67 3.473 8.085 8.143 8.085 4.553 0 8.141-3.473 8.141-7.97Z" fill="#DE8A41"/>
  <path fill-rule="evenodd" clip-rule="evenodd" d="M58.701 7.973c0-4.44-3.53-7.97-8.141-7.97-4.499 0-8.143 3.53-8.143 7.856 0 4.67 3.473 8.085 8.143 8.085 4.553 0 8.141-3.473 8.141-7.97Z" fill="#DE8A43"/>
  <path fill-rule="evenodd" clip-rule="evenodd" d="M58.701 7.973c0-4.44-3.53-7.97-8.141-7.97-4.499 0-8.143 3.53-8.143 7.856 0 4.67 3.473 8.085 8.143 8.085 4.553 0 8.141-3.473 8.141-7.97Z" fill="#DE8A44"/>
  <path fill-rule="evenodd" clip-rule="evenodd" d="M58.701 7.973c0-4.44-3.53-7.97-8.141-7.97-4.499 0-8.143 3.53-8.143 7.856 0 4.67 3.473 8.085 8.143 8.085 4.553 0 8.141-3.473 8.141-7.97Z" fill="#DE8C46"/>
  <path fill-rule="evenodd" clip-rule="evenodd" d="M58.701 7.973c0-.069 0-.14-.002-.209a6.162 6.162 0 0 0-.007-.206v-.005a7.777 7.777 0 0 0-.013-.2l-.001-.008a7.488 7.488 0 0 0-.016-.195l-.001-.01a9.394 9.394 0 0 0-.05-.392l-.03-.18-.004-.019-.017-.097-.023-.114-.011-.055-.03-.138c-.005-.022-.012-.043-.016-.065l-.032-.129-.049-.181c-.011-.043-.025-.085-.036-.127l-.02-.066C57.335 2.327 54.303.002 50.56.002c-3.295 0-6.13 1.893-7.411 4.606a8.051 8.051 0 0 0-.73 3.307c.006.987.168 1.917.463 2.77l.025.07.011.03c.314.853.77 1.646 1.346 2.348 1.464 1.748 3.693 2.811 6.296 2.811 3.7 0 6.762-2.294 7.781-5.567l.052-.176c.149-.523.244-1.06.285-1.602.005-.069.011-.139.014-.208.007-.14.009-.278.009-.418Z" fill="#DF8E47"/>
  <path fill-rule="evenodd" clip-rule="evenodd" d="M58.646 7.973c0-3.097-1.774-5.778-4.352-7.117A8.426 8.426 0 0 0 50.56.002c-1.75 0-3.366.535-4.692 1.44-2.049 1.455-3.393 3.835-3.393 6.531 0 2.966 1.626 5.576 4.028 6.983 1.179.635 2.554.988 4.057.988 1.894 0 3.621-.6 4.992-1.625 1.879-1.486 3.094-3.783 3.094-6.346Z" fill="#DF8E48"/>
  <path fill-rule="evenodd" clip-rule="evenodd" d="M58.53 7.973c0-4.384-3.587-7.97-7.97-7.97-.07 0-.137 0-.205.002h-.005c-4.288.112-7.762 3.655-7.762 7.968a8.033 8.033 0 0 0 5.39 7.596c.804.244 1.67.375 2.582.375a8.499 8.499 0 0 0 3.126-.586 8.035 8.035 0 0 0 4.844-7.385Z" fill="#DF8E4A"/>
  <path fill-rule="evenodd" clip-rule="evenodd" d="M58.473 7.973c0-4.327-3.53-7.914-7.913-7.914-4.385 0-7.915 3.587-7.915 7.914a7.895 7.895 0 0 0 7.914 7.914 7.898 7.898 0 0 0 7.914-7.914Z" fill="#DF904A"/>
  <path fill-rule="evenodd" clip-rule="evenodd" d="M58.418 7.972c0-4.327-3.53-7.8-7.857-7.8-4.328 0-7.858 3.473-7.858 7.8 0 4.328 3.53 7.857 7.858 7.857 4.326 0 7.857-3.53 7.857-7.857Z" fill="#E0914C"/>
  <path fill-rule="evenodd" clip-rule="evenodd" d="M58.36 7.973c0-4.27-3.53-7.743-7.8-7.743s-7.8 3.473-7.8 7.743c0 4.328 3.53 7.8 7.8 7.8s7.8-3.472 7.8-7.8Z" fill="#E0914E"/>
  <path fill-rule="evenodd" clip-rule="evenodd" d="M58.248 7.973c0-4.213-3.417-7.687-7.686-7.687-4.271 0-7.688 3.474-7.688 7.687 0 4.27 3.417 7.743 7.688 7.743 4.27 0 7.686-3.473 7.686-7.743Z" fill="#DF924F"/>
  <path fill-rule="evenodd" clip-rule="evenodd" d="M58.19 7.972a7.63 7.63 0 1 0-15.26.001 7.63 7.63 0 0 0 15.26-.001Z" fill="#E09351"/>
  <path fill-rule="evenodd" clip-rule="evenodd" d="M58.132 7.973c0-4.156-3.416-7.515-7.572-7.515-4.157 0-7.573 3.358-7.573 7.515 0 4.213 3.416 7.573 7.573 7.573 4.156 0 7.572-3.36 7.572-7.573Z" fill="#E09552"/>
  <path fill-rule="evenodd" clip-rule="evenodd" d="M58.018 7.972A7.448 7.448 0 0 0 50.56.514c-4.157 0-7.517 3.36-7.517 7.458a7.509 7.509 0 0 0 7.517 7.516c4.156 0 7.458-3.36 7.458-7.516Z" fill="#E09554"/>
  <path fill-rule="evenodd" clip-rule="evenodd" d="M57.962 7.972A7.385 7.385 0 0 0 50.56.57a7.387 7.387 0 0 0-7.402 7.402c0 4.1 3.302 7.459 7.402 7.459 4.099 0 7.402-3.36 7.402-7.46Z" fill="#E09555"/>
  <path fill-rule="evenodd" clip-rule="evenodd" d="M57.904 7.973c0-4.042-3.302-7.344-7.344-7.344-4.043 0-7.346 3.302-7.346 7.344 0 4.1 3.303 7.346 7.346 7.346a7.328 7.328 0 0 0 7.344-7.346Z" fill="#E19756"/>
  <path fill-rule="evenodd" clip-rule="evenodd" d="M57.848 7.972c0-3.985-3.244-7.23-7.287-7.23-4.043 0-7.288 3.245-7.288 7.23a7.265 7.265 0 0 0 7.288 7.288 7.263 7.263 0 0 0 7.287-7.288Z" fill="#E19757"/>
  <path fill-rule="evenodd" clip-rule="evenodd" d="M57.734 7.972A7.144 7.144 0 0 0 50.56.798c-3.986 0-7.232 3.189-7.232 7.174 0 3.985 3.246 7.23 7.232 7.23 3.985 0 7.173-3.245 7.173-7.23Z" fill="#E29959"/>
  <path fill-rule="evenodd" clip-rule="evenodd" d="M57.676 7.973A7.12 7.12 0 0 0 50.559.856a7.12 7.12 0 0 0-7.117 7.117c0 3.929 3.189 7.174 7.117 7.174s7.117-3.245 7.117-7.174Z" fill="#E2995B"/>
  <path fill-rule="evenodd" clip-rule="evenodd" d="M57.62 7.973c0-3.872-3.189-7.06-7.059-7.06-3.872 0-7.06 3.188-7.06 7.06 0 3.928 3.188 7.06 7.06 7.06 3.87 0 7.059-3.132 7.059-7.06Z" fill="#E29B5B"/>
  <path fill-rule="evenodd" clip-rule="evenodd" d="M57.564 7.971c0-3.814-3.133-6.946-7.003-6.946-3.873 0-7.004 3.132-7.004 6.947a6.998 6.998 0 0 0 7.004 7.003 6.999 6.999 0 0 0 7.003-7.003Z" fill="#E29B5D"/>
  <path fill-rule="evenodd" clip-rule="evenodd" d="M57.45 7.973a6.874 6.874 0 0 0-6.888-6.89 6.877 6.877 0 0 0-6.89 6.89c0 3.815 3.074 6.947 6.89 6.947 3.814 0 6.888-3.132 6.888-6.947Z" fill="#E39D5F"/>
  <path fill-rule="evenodd" clip-rule="evenodd" d="M57.392 7.973c0-3.758-3.074-6.833-6.831-6.833-3.758 0-6.833 3.075-6.833 6.833 0 3.814 3.075 6.889 6.833 6.889 3.757 0 6.831-3.075 6.831-6.89Z" fill="#E39D61"/>
  <path fill-rule="evenodd" clip-rule="evenodd" d="M57.336 7.972c0-3.701-3.018-6.775-6.776-6.775s-6.776 3.074-6.776 6.775a6.755 6.755 0 0 0 6.776 6.775 6.755 6.755 0 0 0 6.776-6.775Z" fill="#E39F63"/>
  <path fill-rule="evenodd" clip-rule="evenodd" d="M57.278 7.973c0-3.701-3.018-6.662-6.718-6.662-3.702 0-6.72 2.961-6.72 6.662s3.018 6.719 6.72 6.719c3.7 0 6.718-3.018 6.718-6.719Z" fill="#E39F63"/>
  <path fill-rule="evenodd" clip-rule="evenodd" d="M57.164 7.972a6.609 6.609 0 0 0-6.603-6.604 6.61 6.61 0 0 0-6.605 6.604c0 3.701 2.96 6.662 6.605 6.662 3.644 0 6.603-2.96 6.603-6.662Z" fill="#E39F64"/>
  <path fill-rule="evenodd" clip-rule="evenodd" d="M57.108 7.972c0-3.587-2.904-6.548-6.548-6.548s-6.548 2.961-6.548 6.548c0 3.644 2.904 6.605 6.548 6.605s6.548-2.961 6.548-6.605Z" fill="#E4A166"/>
  <path fill-rule="evenodd" clip-rule="evenodd" d="M57.05 7.971a6.488 6.488 0 0 0-6.49-6.49 6.488 6.488 0 0 0-6.492 6.49 6.488 6.488 0 0 0 6.492 6.492 6.488 6.488 0 0 0 6.49-6.492Z" fill="#E4A367"/>
  <path fill-rule="evenodd" clip-rule="evenodd" d="M56.995 7.972c0-3.53-2.904-6.377-6.434-6.377-3.53 0-6.434 2.847-6.434 6.377a6.427 6.427 0 0 0 6.434 6.434 6.427 6.427 0 0 0 6.434-6.434Z" fill="#E4A369"/>
  <path fill-rule="evenodd" clip-rule="evenodd" d="M56.88 7.972c0-3.473-2.79-6.32-6.32-6.32a6.306 6.306 0 0 0-6.32 6.32c0 3.53 2.79 6.377 6.32 6.377 3.53 0 6.32-2.847 6.32-6.377Z" fill="#E4A36A"/>
  <path fill-rule="evenodd" clip-rule="evenodd" d="M56.822 7.973A6.244 6.244 0 0 0 50.56 1.71a6.245 6.245 0 0 0-6.264 6.263c0 3.474 2.79 6.32 6.264 6.32 3.472 0 6.262-2.846 6.262-6.32Z" fill="#E5A56C"/>
  <path fill-rule="evenodd" clip-rule="evenodd" d="M56.767 7.972c0-3.416-2.79-6.205-6.206-6.205-3.417 0-6.206 2.79-6.206 6.205 0 3.417 2.79 6.206 6.206 6.206 3.416 0 6.206-2.79 6.206-6.206Z" fill="#E5A56C"/>
  <path fill-rule="evenodd" clip-rule="evenodd" d="M56.709 7.973c0-3.359-2.79-6.092-6.148-6.092-3.36 0-6.15 2.733-6.15 6.092 0 3.417 2.79 6.149 6.15 6.149 3.359 0 6.148-2.732 6.148-6.149Z" fill="#E5A76E"/>
  <path fill-rule="evenodd" clip-rule="evenodd" d="M56.596 7.973c0-3.302-2.676-6.035-6.035-6.035-3.36 0-6.035 2.733-6.035 6.035 0 3.36 2.676 6.092 6.035 6.092s6.035-2.733 6.035-6.092Z" fill="#E5A770"/>
  <path fill-rule="evenodd" clip-rule="evenodd" d="M56.538 7.972a5.977 5.977 0 0 0-5.977-5.978 5.977 5.977 0 0 0-5.979 5.978 5.978 5.978 0 0 0 5.98 5.978 5.977 5.977 0 0 0 5.976-5.978Z" fill="#E6A970"/>
  <path fill-rule="evenodd" clip-rule="evenodd" d="M56.48 7.971c0-3.245-2.675-5.92-5.92-5.92-3.246 0-5.922 2.675-5.922 5.92a5.916 5.916 0 0 0 5.922 5.921 5.916 5.916 0 0 0 5.92-5.92Z" fill="#E6A972"/>
  <path fill-rule="evenodd" clip-rule="evenodd" d="M56.424 7.972c0-3.188-2.62-5.807-5.864-5.807-3.246 0-5.865 2.62-5.865 5.807a5.856 5.856 0 0 0 5.865 5.865 5.856 5.856 0 0 0 5.864-5.865Z" fill="#E6AB74"/>
  <path fill-rule="evenodd" clip-rule="evenodd" d="M56.31 7.972a5.734 5.734 0 0 0-5.749-5.75 5.735 5.735 0 0 0-5.751 5.75c0 3.189 2.562 5.808 5.751 5.808 3.188 0 5.75-2.62 5.75-5.808Z" fill="#E6AB75"/>
  <path fill-rule="evenodd" clip-rule="evenodd" d="M56.253 7.971c0-3.131-2.561-5.693-5.693-5.693-3.131 0-5.694 2.562-5.694 5.693a5.674 5.674 0 0 0 5.694 5.694 5.674 5.674 0 0 0 5.693-5.694Z" fill="#E7AD77"/>
  <path fill-rule="evenodd" clip-rule="evenodd" d="M56.196 7.973c0-3.074-2.505-5.636-5.636-5.636-3.132 0-5.638 2.562-5.638 5.636a5.613 5.613 0 0 0 5.638 5.637 5.613 5.613 0 0 0 5.636-5.637Z" fill="#E7AD77"/>
  <path fill-rule="evenodd" clip-rule="evenodd" d="M56.14 7.972c0-3.074-2.504-5.523-5.579-5.523-3.075 0-5.58 2.449-5.58 5.523a5.589 5.589 0 0 0 5.58 5.58 5.589 5.589 0 0 0 5.58-5.58Z" fill="#E8AF79"/>
  <path fill-rule="evenodd" clip-rule="evenodd" d="M56.025 7.973a5.467 5.467 0 0 0-10.931 0c0 3.075 2.448 5.523 5.466 5.523 3.017 0 5.465-2.448 5.465-5.523Z" fill="#E8AF7B"/>
  <path fill-rule="evenodd" clip-rule="evenodd" d="M55.968 7.973c0-2.96-2.392-5.409-5.408-5.409a5.407 5.407 0 0 0-5.41 5.41 5.371 5.371 0 0 0 5.41 5.409 5.37 5.37 0 0 0 5.408-5.41Z" fill="#E8B17B"/>
  <path fill-rule="evenodd" clip-rule="evenodd" d="M55.913 7.972a5.345 5.345 0 0 0-5.352-5.352 5.347 5.347 0 0 0-5.353 5.352 5.345 5.345 0 0 0 5.353 5.353 5.345 5.345 0 0 0 5.352-5.353Z" fill="#E8B17D"/>
  <path fill-rule="evenodd" clip-rule="evenodd" d="M55.855 7.973c0-2.903-2.39-5.238-5.294-5.238-2.904 0-5.296 2.335-5.296 5.238 0 2.904 2.391 5.296 5.296 5.296 2.903 0 5.294-2.392 5.294-5.296Z" fill="#E8B17E"/>
  <path fill-rule="evenodd" clip-rule="evenodd" d="M55.742 7.973c0-2.847-2.335-5.181-5.18-5.181a5.163 5.163 0 0 0-5.182 5.18c0 2.904 2.277 5.239 5.181 5.239 2.846 0 5.181-2.335 5.181-5.238Z" fill="#E9B381"/>
  <path fill-rule="evenodd" clip-rule="evenodd" d="M55.684 7.972a5.103 5.103 0 0 0-5.123-5.124 5.103 5.103 0 0 0-5.125 5.124 5.104 5.104 0 0 0 5.125 5.125 5.103 5.103 0 0 0 5.123-5.125Z" fill="#E9B381"/>
  <path fill-rule="evenodd" clip-rule="evenodd" d="M55.627 7.972a5.078 5.078 0 0 0-5.067-5.068 5.079 5.079 0 0 0-5.068 5.068 5.079 5.079 0 0 0 5.068 5.067 5.078 5.078 0 0 0 5.067-5.067Z" fill="#E9B583"/>
  <path fill-rule="evenodd" clip-rule="evenodd" d="M55.572 7.973c0-2.733-2.279-4.954-5.01-4.954-2.734 0-5.011 2.22-5.011 4.954 0 2.79 2.277 5.01 5.01 5.01 2.732 0 5.01-2.22 5.01-5.01Z" fill="#E9B584"/>
  <path fill-rule="evenodd" clip-rule="evenodd" d="M55.456 7.972a4.896 4.896 0 1 0-9.793 0c0 2.733 2.164 4.953 4.898 4.953 2.731 0 4.895-2.22 4.895-4.953Z" fill="#EAB786"/>
  <path fill-rule="evenodd" clip-rule="evenodd" d="M55.399 7.971a4.834 4.834 0 0 0-4.84-4.84 4.836 4.836 0 0 0-4.84 4.84 4.836 4.836 0 0 0 4.84 4.84 4.836 4.836 0 0 0 4.84-4.84Z" fill="#EAB788"/>
  <path fill-rule="evenodd" clip-rule="evenodd" d="M55.343 7.973c0-2.619-2.163-4.783-4.782-4.783s-4.783 2.164-4.783 4.783a4.775 4.775 0 0 0 4.784 4.782 4.774 4.774 0 0 0 4.78-4.782Z" fill="#EBB989"/>
  <path fill-rule="evenodd" clip-rule="evenodd" d="M55.286 7.972c0-2.562-2.106-4.669-4.725-4.669-2.62 0-4.726 2.107-4.726 4.669a4.712 4.712 0 0 0 4.726 4.725 4.715 4.715 0 0 0 4.725-4.725Z" fill="#EBB98A"/>
  <path fill-rule="evenodd" clip-rule="evenodd" d="M55.171 7.971A4.594 4.594 0 0 0 50.56 3.36a4.593 4.593 0 0 0-4.613 4.611c0 2.563 2.05 4.67 4.613 4.67 2.561 0 4.611-2.107 4.611-4.67Z" fill="#EBBB8C"/>
  <path fill-rule="evenodd" clip-rule="evenodd" d="M55.115 7.973a4.567 4.567 0 0 0-4.554-4.555 4.568 4.568 0 0 0-4.555 4.555 4.533 4.533 0 0 0 4.555 4.555 4.531 4.531 0 0 0 4.554-4.555Z" fill="#EBBB8C"/>
  <path fill-rule="evenodd" clip-rule="evenodd" d="M55.059 7.972c0-2.448-1.992-4.498-4.498-4.498-2.506 0-4.499 2.05-4.499 4.498a4.472 4.472 0 0 0 4.499 4.498 4.472 4.472 0 0 0 4.498-4.498Z" fill="#ECBD8F"/>
  <path fill-rule="evenodd" clip-rule="evenodd" d="M55 7.973c0-2.448-1.992-4.384-4.44-4.384-2.449 0-4.441 1.936-4.441 4.384a4.447 4.447 0 0 0 4.441 4.442A4.446 4.446 0 0 0 55 7.973Z" fill="#ECBD90"/>
  <path fill-rule="evenodd" clip-rule="evenodd" d="M54.887 7.973a4.325 4.325 0 0 0-5.982-3.999 4.325 4.325 0 0 0-2.672 3.999c0 2.391 1.936 4.384 4.328 4.384 2.39 0 4.326-1.993 4.326-4.384Z" fill="#ECBF93"/>
  <path fill-rule="evenodd" clip-rule="evenodd" d="M54.83 7.972c0-2.334-1.936-4.27-4.27-4.27a4.265 4.265 0 0 0-4.27 4.27 4.229 4.229 0 0 0 4.27 4.27 4.265 4.265 0 0 0 4.27-4.27Z" fill="#ECBF93"/>
  <path fill-rule="evenodd" clip-rule="evenodd" d="M54.773 7.972a4.204 4.204 0 0 0-4.213-4.214 4.204 4.204 0 0 0-4.214 4.214 4.204 4.204 0 0 0 4.214 4.213 4.202 4.202 0 0 0 4.213-4.213Z" fill="#EDC195"/>
  <path fill-rule="evenodd" clip-rule="evenodd" d="M54.715 7.972c0-2.277-1.878-4.099-4.156-4.099-2.277 0-4.156 1.822-4.156 4.1 0 2.276 1.879 4.156 4.157 4.156 2.277 0 4.155-1.88 4.155-4.157Z" fill="#EDC196"/>
  <path fill-rule="evenodd" clip-rule="evenodd" d="M54.602 7.972a4.058 4.058 0 0 0-4.041-4.043 4.058 4.058 0 0 0-4.044 4.043c0 2.277 1.822 4.1 4.043 4.1s4.042-1.822 4.042-4.1Z" fill="#EEC397"/>
  <path fill-rule="evenodd" clip-rule="evenodd" d="M54.545 7.973c0-2.163-1.764-3.985-3.985-3.985s-3.986 1.822-3.986 3.985a3.962 3.962 0 0 0 3.986 3.986 3.959 3.959 0 0 0 3.985-3.986Z" fill="#EEC399"/>
  <path fill-rule="evenodd" clip-rule="evenodd" d="M54.49 7.973a3.936 3.936 0 0 0-3.928-3.929 3.937 3.937 0 0 0-3.93 3.93 3.936 3.936 0 0 0 3.93 3.928 3.936 3.936 0 0 0 3.927-3.929Z" fill="#EEC59B"/>
  <path fill-rule="evenodd" clip-rule="evenodd" d="M54.432 7.972c0-2.107-1.765-3.815-3.871-3.815-2.107 0-3.872 1.708-3.872 3.815a3.876 3.876 0 0 0 3.872 3.872 3.875 3.875 0 0 0 3.87-3.872Z" fill="#EEC69D"/>
  <path fill-rule="evenodd" clip-rule="evenodd" d="M54.317 7.971a3.755 3.755 0 0 0-3.757-3.758A3.754 3.754 0 0 0 46.8 7.971c0 2.107 1.652 3.815 3.759 3.815 2.106 0 3.757-1.708 3.757-3.815Z" fill="#EEC69F"/>
  <path fill-rule="evenodd" clip-rule="evenodd" d="M54.261 7.973a3.694 3.694 0 0 0-3.7-3.701 3.694 3.694 0 0 0-3.701 3.7 3.693 3.693 0 0 0 3.701 3.702 3.695 3.695 0 0 0 3.7-3.701Z" fill="#EFC89F"/>
  <path fill-rule="evenodd" clip-rule="evenodd" d="M54.205 7.972c0-1.992-1.651-3.644-3.644-3.644s-3.645 1.652-3.645 3.644a3.633 3.633 0 0 0 3.645 3.644 3.633 3.633 0 0 0 3.644-3.644Z" fill="#EFC8A1"/>
  <path fill-rule="evenodd" clip-rule="evenodd" d="M54.147 7.973c0-1.936-1.594-3.53-3.587-3.53s-3.587 1.594-3.587 3.53a3.572 3.572 0 0 0 3.587 3.587 3.572 3.572 0 0 0 3.587-3.587Z" fill="#EFCAA3"/>
  <path fill-rule="evenodd" clip-rule="evenodd" d="M54.034 7.972A3.45 3.45 0 0 0 50.56 4.5a3.45 3.45 0 0 0-3.474 3.472c0 1.936 1.538 3.53 3.474 3.53 1.936 0 3.473-1.593 3.473-3.53Z" fill="#EFCAA3"/>
  <path fill-rule="evenodd" clip-rule="evenodd" d="M53.976 7.972a3.425 3.425 0 0 0-3.415-3.416 3.426 3.426 0 0 0-3.417 3.416 3.427 3.427 0 0 0 3.417 3.416 3.426 3.426 0 0 0 3.415-3.416Z" fill="#F0CCA6"/>
  <path fill-rule="evenodd" clip-rule="evenodd" d="M53.92 7.973c0-1.821-1.539-3.359-3.36-3.359a3.366 3.366 0 0 0-3.36 3.36 3.33 3.33 0 0 0 3.36 3.359 3.366 3.366 0 0 0 3.36-3.36Z" fill="#F0CCA8"/>
  <path fill-rule="evenodd" clip-rule="evenodd" d="M53.862 7.972c0-1.821-1.482-3.245-3.302-3.245-1.823 0-3.303 1.424-3.303 3.245a3.304 3.304 0 0 0 3.303 3.303 3.305 3.305 0 0 0 3.302-3.303Z" fill="#F1CEAA"/>
  <path fill-rule="evenodd" clip-rule="evenodd" d="M53.748 7.972a3.182 3.182 0 0 0-3.187-3.189 3.183 3.183 0 0 0-3.19 3.189c0 1.765 1.424 3.245 3.19 3.245 1.764 0 3.187-1.48 3.187-3.245Z" fill="#F1CEAA"/>
  <path fill-rule="evenodd" clip-rule="evenodd" d="M53.69 7.972c0-1.708-1.423-3.132-3.13-3.132-1.71 0-3.132 1.423-3.132 3.132a3.122 3.122 0 0 0 3.132 3.131 3.122 3.122 0 0 0 3.13-3.131Z" fill="#F1D0AD"/>
  <path fill-rule="evenodd" clip-rule="evenodd" d="M53.635 7.973c0-1.652-1.367-3.075-3.074-3.075-1.709 0-3.075 1.423-3.075 3.075a3.063 3.063 0 0 0 3.075 3.074 3.063 3.063 0 0 0 3.074-3.074Z" fill="#F1D0AE"/>
  <path fill-rule="evenodd" clip-rule="evenodd" d="M53.577 7.971c0-1.65-1.366-2.96-3.017-2.96-1.65 0-3.018 1.31-3.018 2.96a3.038 3.038 0 0 0 3.018 3.018 3.038 3.038 0 0 0 3.017-3.018Z" fill="#F2D2B1"/>
  <path fill-rule="evenodd" clip-rule="evenodd" d="M53.465 7.973a2.917 2.917 0 0 0-2.904-2.904 2.916 2.916 0 0 0-2.904 2.904c0 1.651 1.31 2.96 2.905 2.96 1.593 0 2.903-1.31 2.903-2.96Z" fill="#F2D2B3"/>
  <path fill-rule="evenodd" clip-rule="evenodd" d="M53.407 7.972a2.855 2.855 0 0 0-2.846-2.846 2.855 2.855 0 0 0-2.847 2.846 2.82 2.82 0 0 0 2.847 2.847 2.82 2.82 0 0 0 2.846-2.847Z" fill="#F3D4B4"/>
  <path fill-rule="evenodd" clip-rule="evenodd" d="M53.35 7.972a2.794 2.794 0 0 0-2.79-2.79 2.794 2.794 0 0 0-2.79 2.79 2.794 2.794 0 0 0 2.79 2.79 2.794 2.794 0 0 0 2.79-2.79Z" fill="#F3D4B5"/>
  <path fill-rule="evenodd" clip-rule="evenodd" d="M53.291 7.973c0-1.48-1.252-2.676-2.731-2.676-1.481 0-2.734 1.196-2.734 2.676a2.734 2.734 0 0 0 5.465 0Z" fill="#F3D4B7"/>
  <path fill-rule="evenodd" clip-rule="evenodd" d="M53.18 7.972a2.611 2.611 0 0 0-2.62-2.619 2.612 2.612 0 0 0-2.619 2.62c0 1.48 1.14 2.675 2.62 2.675 1.48 0 2.618-1.196 2.618-2.676Z" fill="#F3D6B8"/>
  <path fill-rule="evenodd" clip-rule="evenodd" d="M53.122 7.972A2.552 2.552 0 0 0 50.56 5.41a2.552 2.552 0 0 0-2.562 2.562 2.552 2.552 0 0 0 2.562 2.562 2.554 2.554 0 0 0 2.562-2.562Z" fill="#F4D8BA"/>
  <path fill-rule="evenodd" clip-rule="evenodd" d="M53.065 7.973a2.527 2.527 0 0 0-2.505-2.505 2.528 2.528 0 0 0-2.506 2.505 2.491 2.491 0 0 0 2.506 2.506 2.491 2.491 0 0 0 2.505-2.506Z" fill="#F4D9BC"/>
  <path fill-rule="evenodd" clip-rule="evenodd" d="M53.01 7.972c0-1.31-1.082-2.391-2.449-2.391-1.366 0-2.449 1.081-2.449 2.391a2.43 2.43 0 0 0 2.45 2.448 2.43 2.43 0 0 0 2.447-2.448Z" fill="#F4D9BE"/>
  <path fill-rule="evenodd" clip-rule="evenodd" d="M52.894 7.972a2.308 2.308 0 0 0-2.334-2.335 2.309 2.309 0 0 0-2.335 2.335c0 1.31 1.025 2.39 2.335 2.39s2.334-1.081 2.334-2.39Z" fill="#F4DBBF"/>
  <path fill-rule="evenodd" clip-rule="evenodd" d="M52.837 7.973a2.284 2.284 0 0 0-2.278-2.277 2.284 2.284 0 0 0-2.277 2.277 2.284 2.284 0 0 0 2.278 2.278 2.284 2.284 0 0 0 2.277-2.278Z" fill="#F4DBC0"/>
  <path fill-rule="evenodd" clip-rule="evenodd" d="M52.782 7.973c0-1.196-1.025-2.22-2.22-2.22-1.197 0-2.222 1.024-2.222 2.22a2.223 2.223 0 0 0 2.221 2.22c1.195 0 2.22-.968 2.22-2.22Z" fill="#F5DDC3"/>
  <path fill-rule="evenodd" clip-rule="evenodd" d="M52.724 7.971c0-1.138-.969-2.106-2.163-2.106-1.196 0-2.165.968-2.165 2.106a2.164 2.164 0 0 0 4.328 0Z" fill="#F5DDC3"/>
  <path fill-rule="evenodd" clip-rule="evenodd" d="M52.61 7.973a2.04 2.04 0 0 0-2.048-2.05c-1.14 0-2.05.911-2.05 2.05 0 1.138.91 2.106 2.05 2.106 1.139 0 2.048-.967 2.048-2.106Z" fill="#F6DFC6"/>
  <path fill-rule="evenodd" clip-rule="evenodd" d="M52.553 7.972c0-1.082-.91-1.992-1.992-1.992-1.083 0-1.993.91-1.993 1.992a1.98 1.98 0 0 0 1.993 1.993 1.98 1.98 0 0 0 1.992-1.993Z" fill="#F6DFC7"/>
  <path fill-rule="evenodd" clip-rule="evenodd" d="M52.496 7.971c0-1.024-.854-1.935-1.936-1.935-1.082 0-1.936.91-1.936 1.935a1.918 1.918 0 0 0 1.936 1.936 1.92 1.92 0 0 0 1.936-1.936Z" fill="#F6E1CA"/>
  <path fill-rule="evenodd" clip-rule="evenodd" d="M52.438 7.972c0-1.024-.854-1.821-1.878-1.821-1.025 0-1.88.797-1.88 1.821 0 1.026.854 1.88 1.88 1.88a1.895 1.895 0 0 0 1.878-1.88Z" fill="#F6E1CC"/>
  <path fill-rule="evenodd" clip-rule="evenodd" d="M52.325 7.972a1.774 1.774 0 0 0-1.764-1.765 1.774 1.774 0 0 0-1.766 1.765c0 1.026.798 1.822 1.766 1.822.967 0 1.764-.796 1.764-1.822Z" fill="#F7E3CD"/>
  <path fill-rule="evenodd" clip-rule="evenodd" d="M52.268 7.971c0-.91-.74-1.707-1.708-1.707s-1.709.797-1.709 1.707c0 .968.741 1.708 1.71 1.708.966 0 1.707-.74 1.707-1.708Z" fill="#F7E3CF"/>
  <path fill-rule="evenodd" clip-rule="evenodd" d="M52.21 7.971a1.652 1.652 0 0 0-1.65-1.651 1.652 1.652 0 0 0 0 3.303 1.652 1.652 0 0 0 1.65-1.652Z" fill="#F7E3D0"/>
  <path fill-rule="evenodd" clip-rule="evenodd" d="M52.154 7.972c0-.854-.74-1.537-1.593-1.537-.855 0-1.595.683-1.595 1.537a1.591 1.591 0 0 0 2.205 1.474 1.592 1.592 0 0 0 .983-1.474Z" fill="#F8E5D1"/>
  <path fill-rule="evenodd" clip-rule="evenodd" d="M52.04 7.973a1.47 1.47 0 0 0-1.48-1.48 1.47 1.47 0 0 0-1.48 1.48c0 .854.625 1.538 1.48 1.538.854 0 1.48-.683 1.48-1.538Z" fill="#F8E8D4"/>
  <path fill-rule="evenodd" clip-rule="evenodd" d="M51.984 7.973A1.41 1.41 0 0 0 50.56 6.55a1.41 1.41 0 0 0-1.423 1.423 1.41 1.41 0 0 0 1.423 1.424 1.41 1.41 0 0 0 1.423-1.424Z" fill="#F8E8D6"/>
  <path fill-rule="evenodd" clip-rule="evenodd" d="M51.927 7.972c0-.74-.627-1.31-1.366-1.31-.74 0-1.367.57-1.367 1.31 0 .74.626 1.367 1.367 1.367.74 0 1.366-.626 1.366-1.367Z" fill="#F8E8D8"/>
  <path fill-rule="evenodd" clip-rule="evenodd" d="M51.87 7.972c0-.683-.627-1.253-1.31-1.253-.684 0-1.31.57-1.31 1.253 0 .74.627 1.31 1.31 1.31s1.31-.57 1.31-1.31Z" fill="#F9EAD9"/>
  <path fill-rule="evenodd" clip-rule="evenodd" d="M51.756 7.973c0-.626-.513-1.196-1.195-1.196-.684 0-1.196.57-1.196 1.196 0 .684.512 1.253 1.196 1.253.682 0 1.195-.57 1.195-1.253Z" fill="#FAECDC"/>
  <path fill-rule="evenodd" clip-rule="evenodd" d="M51.7 7.973a1.143 1.143 0 0 0-1.14-1.14c-.627 0-1.139.513-1.139 1.14 0 .626.512 1.139 1.14 1.139a1.142 1.142 0 0 0 1.139-1.14Z" fill="#FAECDD"/>
  <path fill-rule="evenodd" clip-rule="evenodd" d="M51.642 7.973c0-.57-.513-1.025-1.082-1.025-.57 0-1.082.456-1.082 1.025a1.082 1.082 0 1 0 2.164 0Z" fill="#FAECDF"/>
  <path fill-rule="evenodd" clip-rule="evenodd" d="M51.586 7.972c0-.512-.455-.967-1.024-.967-.57 0-1.026.455-1.026.967 0 .57.456 1.026 1.026 1.026a1.021 1.021 0 0 0 1.024-1.026Z" fill="#FAEEE0"/>
  <path fill-rule="evenodd" clip-rule="evenodd" d="M51.472 7.972a.9.9 0 0 0-.911-.91.9.9 0 0 0-.912.91c0 .512.4.968.912.968s.91-.456.91-.968Z" fill="#FBF0E3"/>
  <path fill-rule="evenodd" clip-rule="evenodd" d="M51.414 7.971c0-.455-.4-.853-.854-.853a.876.876 0 0 0-.855.853c0 .513.4.854.855.854a.839.839 0 0 0 .854-.854Z" fill="#FBF1E5"/>
  <path fill-rule="evenodd" clip-rule="evenodd" d="M51.358 7.972c0-.398-.342-.74-.797-.74s-.797.342-.797.74c0 .456.342.798.797.798a.779.779 0 0 0 .797-.798Z" fill="#FBF1E7"/>
  <path fill-rule="evenodd" clip-rule="evenodd" d="M51.3 7.972c0-.399-.34-.683-.74-.683-.399 0-.74.284-.74.683 0 .399.341.74.74.74.4 0 .74-.342.74-.74Z" fill="#FCF3E8"/>
  <path fill-rule="evenodd" clip-rule="evenodd" d="M51.186 7.973a.632.632 0 0 0-.626-.626.633.633 0 0 0-.627.626c0 .4.285.684.627.684.341 0 .626-.285.626-.684Z" fill="#FCF3EA"/>
  <path fill-rule="evenodd" clip-rule="evenodd" d="M51.13 7.973a.57.57 0 0 0-.569-.57.57.57 0 0 0-.57.57c0 .342.228.57.57.57.341 0 .569-.228.569-.57Z" fill="#FCF5ED"/>
  <path fill-rule="evenodd" clip-rule="evenodd" d="M51.072 7.972c0-.285-.227-.456-.511-.456-.285 0-.513.171-.513.456a.51.51 0 0 0 .709.473.51.51 0 0 0 .316-.473Z" fill="#FCF5EF"/>
  <path fill-rule="evenodd" clip-rule="evenodd" d="M51.014 7.973c0-.227-.228-.398-.454-.398-.228 0-.456.171-.456.398 0 .228.228.456.456.456.226 0 .454-.228.454-.456Z" fill="#FDF8F1"/>
  <path fill-rule="evenodd" clip-rule="evenodd" d="M50.902 7.973c0-.171-.17-.342-.34-.342a.367.367 0 0 0-.343.342c0 .227.17.399.342.399.17 0 .341-.172.341-.4Z" fill="#FDF8F3"/>
  <path fill-rule="evenodd" clip-rule="evenodd" d="M50.845 7.972c0-.114-.114-.285-.284-.285-.172 0-.286.171-.286.285 0 .17.114.285.286.285.17 0 .284-.114.284-.285Z" fill="#FDF8F5"/>
  <path fill-rule="evenodd" clip-rule="evenodd" d="M50.786 7.973c0-.114-.113-.17-.227-.17s-.227.056-.227.17c0 .114.113.228.227.228s.227-.114.227-.228Z" fill="#FEFBF6"/>
  <path fill-rule="evenodd" clip-rule="evenodd" d="M50.673 7.973c0-.057-.057-.114-.113-.114-.058 0-.172.057-.172.114 0 .113.114.17.172.17.056 0 .113-.057.113-.17Z" fill="#FFFFFB"/>
  <path fill-rule="evenodd" clip-rule="evenodd" d="M50.617 7.972s0-.057-.056-.057c-.058 0-.058.057-.058.057 0 .057 0 .114.057.114s.057-.057.057-.114ZM4.384.342H0v15.259h4.327c2.335 0 3.986-.513 5.466-1.765 1.709-1.423 2.79-3.587 2.79-5.865 0-4.497-3.36-7.629-8.199-7.629Zm3.473 11.501c-.967.797-2.164 1.196-4.1 1.196h-.796V2.961h.797c1.935 0 3.074.342 4.1 1.195 1.024.911 1.65 2.335 1.65 3.815s-.626 2.961-1.65 3.872Zm6.093 3.758h2.96V.342h-2.96v15.26Zm10.248-9.394c-1.822-.683-2.335-1.082-2.335-1.936 0-.968.968-1.65 2.221-1.65.91 0 1.651.34 2.391 1.194l1.595-1.992C26.76.684 25.223.115 23.572.115c-2.733 0-4.783 1.879-4.783 4.384 0 2.107.968 3.132 3.758 4.156 1.196.399 1.765.683 2.05.854.626.4.91.968.91 1.595 0 1.253-.967 2.163-2.334 2.163-1.366 0-2.562-.74-3.245-2.05l-1.879 1.88C19.416 15.088 21.067 16 23.344 16c3.074 0 5.238-2.05 5.238-5.01 0-2.449-1.025-3.531-4.384-4.783Zm5.295 1.764c0 4.498 3.53 7.972 8.085 7.972 1.253 0 2.391-.229 3.7-.855v-3.53c-1.195 1.195-2.22 1.708-3.586 1.708-2.96 0-5.124-2.22-5.124-5.295 0-2.904 2.22-5.238 5.01-5.238 1.423 0 2.505.512 3.7 1.708V.968C40.027.284 38.945 0 37.636 0c-4.498 0-8.142 3.588-8.142 7.971ZM65.42 10.591 61.377.342h-3.302L64.566 16h1.594L72.766.342H69.52l-4.099 10.25Zm8.712 5.01h8.426V13.04h-5.466v-4.1h5.238V6.322h-5.238V2.96h5.466V.342h-8.426v15.26Zm20.212-10.76c0-2.847-1.936-4.499-5.409-4.499h-4.384v15.26h2.96V9.508h.399l4.1 6.092h3.643l-4.782-6.434c2.22-.455 3.473-1.992 3.473-4.327Zm-5.979 2.562h-.854V2.734h.91c1.88 0 2.847.797 2.847 2.278 0 1.537-.967 2.39-2.903 2.39Zm7.719-5.707c0 .117-.08.179-.243.179h-.055v-.35h.059c.161 0 .239.056.239.17Zm.476.924-.443-.556a.37.37 0 0 0 .298-.376c0-.264-.184-.412-.513-.412h-.428V2.62h.317V2.1l.377.52h.392Zm.565-.674A1.17 1.17 0 0 0 95.97.774a1.167 1.167 0 0 0-1.174 1.172 1.17 1.17 0 0 0 1.174 1.173 1.17 1.17 0 0 0 1.156-1.173Zm-.236.003c0 .527-.415.96-.925.96a.95.95 0 0 1-.937-.96c0-.536.419-.961.937-.961.51 0 .925.432.925.961Z" fill="#fff"/>
</svg>
