<svg width="93" height="24" fill="none" xmlns="http://www.w3.org/2000/svg">
  <path d="M17.747 24c6.56.031 12.547-5.35 12.547-11.896C30.294 4.946 24.307-.002 17.747 0h-5.645C5.464-.002 0 4.947 0 12.104 0 18.652 5.464 24.031 12.102 24h5.645Z" fill="#0079BE"/>
  <path d="M12.129.992C6.063.994 1.148 5.91 1.146 11.978c.002 6.068 4.917 10.984 10.983 10.986 6.067-.002 10.983-4.918 10.984-10.986C23.113 5.91 18.196.994 12.13.992ZM5.167 11.978a6.974 6.974 0 0 1 4.47-6.498v12.995a6.971 6.971 0 0 1-4.47-6.497Zm9.453 6.5V5.48a6.97 6.97 0 0 1 4.472 6.5 6.973 6.973 0 0 1-4.472 6.5ZM34.141 5.163c0-1.135-.592-1.06-1.16-1.073v-.328c.492.024.997.024 1.49.024.53 0 1.25-.024 2.183-.024 3.268 0 5.047 2.183 5.047 4.418 0 1.25-.73 4.393-5.199 4.393-.643 0-1.237-.025-1.83-.025-.567 0-1.123.012-1.69.025v-.328c.756-.076 1.123-.101 1.159-.96V5.163Zm1.237 5.92c0 .973.695 1.086 1.313 1.086 2.727 0 3.622-2.058 3.622-3.939 0-2.36-1.515-4.063-3.95-4.063-.518 0-.756.037-.985.05v6.867ZM42.144 12.245h.239c.352 0 .605 0 .605-.417v-3.42c0-.555-.189-.632-.656-.883v-.202c.593-.178 1.3-.417 1.35-.455a.448.448 0 0 1 .228-.063c.062 0 .088.076.088.177v4.846c0 .418.278.418.631.418h.215v.328c-.43 0-.872-.026-1.325-.026-.454 0-.91.013-1.375.026v-.329Zm1.35-7.384c-.329 0-.618-.303-.618-.63 0-.317.302-.608.618-.608.327 0 .618.266.618.607a.63.63 0 0 1-.618.631ZM46.043 8.483c0-.467-.14-.593-.731-.833v-.24c.542-.176 1.059-.34 1.665-.606.037 0 .074.026.074.126v.821c.721-.517 1.34-.947 2.186-.947 1.072 0 1.45.783 1.45 1.767v3.257c0 .417.278.417.632.417h.227v.328c-.443 0-.885-.025-1.338-.025-.455 0-.91.012-1.363.025v-.328h.226c.355 0 .606 0 .606-.417V8.559c0-.72-.44-1.073-1.16-1.073-.404 0-1.048.328-1.466.606v3.735c0 .418.28.418.633.418h.227v.328c-.442 0-.884-.025-1.338-.025-.454 0-.91.012-1.363.025v-.328h.228c.353 0 .605 0 .605-.418V8.483ZM52.505 9.09c-.026.113-.026.302 0 .732.075 1.198.846 2.183 1.854 2.183.695 0 1.239-.379 1.705-.846l.176.178c-.58.77-1.3 1.425-2.334 1.425-2.007 0-2.41-1.944-2.41-2.751 0-2.474 1.665-3.207 2.548-3.207 1.023 0 2.121.644 2.133 1.982 0 .076 0 .151-.012.228l-.114.075h-3.546Zm2.234-.405c.315 0 .353-.164.353-.315 0-.644-.392-1.162-1.099-1.162-.769 0-1.299.568-1.45 1.477h2.197ZM56.468 12.245h.34c.353 0 .605 0 .605-.417V8.28c0-.39-.466-.467-.656-.568v-.188c.922-.392 1.427-.72 1.542-.72.074 0 .112.037.112.164v1.136h.026c.315-.492.846-1.3 1.615-1.3.316 0 .72.213.72.668 0 .341-.24.645-.593.645-.393 0-.393-.304-.834-.304-.215 0-.921.29-.921 1.048v2.966c0 .417.252.417.606.417h.706v.328c-.694-.013-1.222-.025-1.766-.025-.517 0-1.048.012-1.502.025v-.328ZM61.326 10.818c.165.833.669 1.54 1.59 1.54.744 0 1.022-.454 1.022-.896 0-1.49-2.75-1.01-2.75-3.042 0-.707.568-1.616 1.955-1.616.404 0 .946.114 1.438.367l.09 1.287h-.291c-.126-.795-.567-1.25-1.376-1.25-.505 0-.984.291-.984.833 0 1.478 2.928 1.023 2.928 3.004 0 .833-.67 1.717-2.171 1.717-.505 0-1.098-.176-1.54-.428l-.138-1.452.227-.064ZM76.344 6.047h-.314c-.24-1.476-1.288-2.07-2.7-2.07-1.453 0-3.56.971-3.56 4 0 2.552 1.818 4.381 3.76 4.381 1.25 0 2.285-.858 2.538-2.183l.29.075-.29 1.843c-.53.329-1.957.67-2.79.67-2.953 0-4.82-1.907-4.82-4.747 0-2.588 2.31-4.444 4.782-4.444 1.022 0 2.007.33 2.979.67l.125 1.805ZM76.799 12.245h.239c.354 0 .607 0 .607-.417v-7.03c0-.82-.19-.846-.67-.985v-.201c.505-.164 1.035-.392 1.3-.544.138-.075.24-.139.277-.139.077 0 .103.076.103.178v8.72c0 .418.277.418.63.418h.213v.329c-.427 0-.869-.026-1.323-.026-.454 0-.909.013-1.376.025v-.328ZM84.902 11.878c0 .228.138.24.352.24.152 0 .34-.012.505-.012v.266c-.543.05-1.578.315-1.818.39l-.063-.038v-1.021c-.756.618-1.338 1.06-2.234 1.06-.682 0-1.388-.442-1.388-1.502V8.03c0-.328-.05-.644-.756-.707v-.24c.455-.012 1.462-.088 1.627-.088.14 0 .14.088.14.366v3.256c0 .38 0 1.464 1.097 1.464.43 0 .997-.328 1.526-.768V7.915c0-.252-.605-.39-1.058-.517V7.17c1.134-.076 1.842-.177 1.968-.177.102 0 .102.088.102.228v4.656ZM87.414 7.714c.504-.43 1.185-.91 1.88-.91 1.464 0 2.347 1.277 2.347 2.651 0 1.654-1.211 3.307-3.017 3.307-.933 0-1.425-.303-1.754-.44l-.378.289-.264-.139c.112-.744.176-1.477.176-2.246V4.798c0-.82-.19-.846-.67-.985v-.201c.507-.164 1.035-.392 1.3-.544.14-.075.24-.139.279-.139.075 0 .1.076.1.178v4.606Zm0 3.432c0 .48.453 1.289 1.299 1.289 1.35 0 1.918-1.326 1.918-2.45 0-1.363-1.034-2.499-2.018-2.499-.469 0-.859.304-1.2.595v3.065ZM32.967 19.912h.096c.247 0 .508-.033.508-.391v-3.598c0-.358-.26-.392-.508-.392h-.096v-.206c.268 0 .68.027 1.017.027.343 0 .755-.027 1.078-.027v.206h-.097c-.246 0-.508.034-.508.392v3.598c0 .358.262.39.508.39h.097v.208c-.33 0-.743-.027-1.085-.027-.337 0-.742.027-1.01.027v-.207Z" fill="#fff"/>
  <path d="M35.062 20.148c-.332 0-.743-.027-1.085-.027-.336 0-.74.027-1.01.027h-.03v-.265h.126c.25-.006.476-.026.478-.362v-3.598c-.002-.336-.229-.358-.478-.363h-.126v-.266h.03c.27 0 .681.028 1.017.028.342 0 .753-.028 1.078-.028h.03v.266h-.126c-.25.005-.478.027-.479.363v3.598c.001.336.23.356.478.362h.127v.265h-.03Zm-.03-.058v-.147h-.066c-.246 0-.538-.042-.539-.422v-3.598c.001-.38.293-.422.539-.422h.066v-.146c-.317 0-.714.027-1.048.027-.326 0-.72-.025-.986-.027v.146h.065c.245 0 .538.043.538.422v3.598c0 .38-.293.422-.538.422h-.066v.147c.266-.003.654-.028.98-.028.334 0 .731.026 1.055.028ZM39.78 18.765l.013-.013v-2.575c0-.564-.392-.646-.597-.646h-.152v-.206c.324 0 .64.027.962.027.281 0 .564-.027.845-.027v.206h-.103c-.29 0-.612.055-.612.872v3.126c0 .24.007.48.041.692h-.261L36.38 16.28v2.83c0 .598.116.803.645.803h.116v.207c-.294 0-.59-.027-.885-.027-.308 0-.624.027-.934.027v-.207h.096c.474 0 .618-.322.618-.871v-2.893a.616.616 0 0 0-.624-.617h-.09v-.206c.261 0 .529.027.79.027.206 0 .405-.027.61-.027l3.057 3.44Z" fill="#fff"/>
  <path d="m40.176 20.252-.283-.01-3.485-3.885v2.752c.008.597.1.767.616.774h.148v.265h-.03c-.298 0-.594-.027-.887-.027-.307 0-.623.027-.934.027h-.03v-.265h.127c.453-.003.583-.294.588-.842V16.15a.588.588 0 0 0-.595-.589h-.12v-.265h.03c.262 0 .531.027.79.027.203 0 .402-.027.634-.017l3.018 3.398v-2.526c-.004-.546-.368-.612-.568-.617h-.182v-.265h.03c.325 0 .64.027.962.027.28 0 .56-.027.845-.027h.03v.265h-.133c-.283.008-.574.033-.582.843v3.125c0 .24.007.48.04.688l.007.036h-.036Zm-.26-.06h.227a4.588 4.588 0 0 1-.037-.664v-3.125c0-.824.346-.902.641-.902h.073v-.146c-.27.002-.542.027-.815.027-.314 0-.62-.025-.93-.027l-.001.146h.121c.211 0 .628.094.628.676l-.01 2.596-.014.014-.023.021-3.054-3.453c-.204 0-.403.027-.612.027-.252 0-.51-.025-.758-.027l-.002.146h.061c.323 0 .654.246.654.648v2.892c0 .55-.153.9-.647.902l-.066-.002v.149c.297-.003.603-.028.903-.028.287 0 .572.025.856.028v-.147h-.086c-.541-.002-.675-.237-.676-.834v-2.907l3.566 3.99Zm-.137-1.427.022-.02-.022.02Zm-.016-.013v-.003l-.006-.005.006.008ZM41.879 15.668c-.516 0-.536.123-.639.624h-.206c.027-.192.062-.384.083-.584.027-.192.04-.383.04-.582h.166c.055.206.226.199.413.199h3.542c.186 0 .357-.007.371-.214l.164.028c-.027.186-.054.37-.075.557-.012.185-.012.37-.012.555l-.207.077c-.014-.254-.049-.66-.508-.66h-1.126v3.654c0 .53.24.59.569.59h.13v.207c-.267 0-.748-.027-1.118-.027-.412 0-.894.027-1.162.027v-.207h.131c.379 0 .57-.034.57-.576v-3.668h-1.127Z" fill="#fff"/>
  <path d="M44.586 20.148c-.27 0-.751-.027-1.12-.027-.412 0-.892.027-1.162.027h-.028v-.265h.159c.379-.01.531-.014.54-.547v-3.638h-1.096v-.06h1.155v3.698c0 .551-.222.607-.599.607h-.1v.145c.27-.001.732-.026 1.13-.026.359 0 .818.025 1.09.026v-.145h-.101c-.332 0-.6-.082-.6-.621v-3.685h1.157c.461.002.521.394.536.649l.148-.055c0-.18.001-.359.014-.54.02-.176.045-.351.07-.527l-.104-.017c-.032.2-.225.21-.398.208H41.7c-.161 0-.338-.008-.4-.2h-.113c0 .19-.014.375-.04.557-.02.189-.052.37-.078.552h.148c.09-.479.15-.634.662-.627v.06c-.508.01-.498.096-.61.603l-.005.023H41l.004-.035c.027-.193.062-.384.083-.584a3.88 3.88 0 0 0 .042-.578v-.03h.217l.005.021c.047.173.174.174.349.177h3.577c.192-.003.33-.005.343-.185l.002-.032.031.006.194.03-.004.03c-.028.185-.055.37-.075.555-.014.182-.014.368-.014.553v.022l-.019.008-.243.088-.002-.04c-.018-.258-.045-.631-.479-.631h-1.096v3.624c.006.518.212.554.539.56h.16v.266h-.028ZM46.033 19.912h.097c.247 0 .508-.033.508-.391v-3.598c0-.358-.261-.392-.508-.392h-.097v-.206c.418 0 1.134.027 1.71.027.577 0 1.29-.027 1.757-.027-.011.295-.005.749.015 1.05l-.207.055c-.033-.446-.115-.802-.837-.802h-.953v1.798h.816c.411 0 .502-.233.542-.604h.206a16.272 16.272 0 0 0 0 1.587l-.206.04c-.04-.411-.061-.679-.536-.679h-.823v1.6c0 .447.397.447.837.447.824 0 1.188-.056 1.394-.838l.192.047c-.09.365-.171.728-.232 1.093-.44 0-1.23-.027-1.848-.027-.619 0-1.435.027-1.827.027v-.207Z" fill="#fff"/>
  <path d="M49.707 20.148c-.441 0-1.23-.028-1.847-.028-.619 0-1.435.028-1.827.028h-.03v-.266h.126c.25-.003.475-.025.478-.36v-3.599c-.003-.335-.229-.358-.478-.363h-.125v-.265h.029c.419 0 1.133.027 1.709.027.578 0 1.29-.027 1.758-.027h.03v.03a10.568 10.568 0 0 0 .014 1.048v.025l-.023.007-.241.063-.002-.035c-.04-.446-.1-.77-.807-.776h-.925l-.001 1.738h.788c.396-.003.467-.206.513-.576l.003-.027h.263v.031c-.014.268-.022.535-.022.803 0 .26.008.52.022.782v.024l-.025.006-.238.047-.003-.032c-.047-.419-.05-.648-.506-.654h-.794v1.57c0 .418.36.416.808.418.827-.005 1.158-.045 1.365-.816l.007-.028.029.005.22.057-.007.029c-.088.363-.17.726-.232 1.09l-.006.024h-.023Zm-.026-.06c.06-.346.139-.694.223-1.04l-.136-.034c-.206.769-.604.838-1.414.832-.432 0-.866 0-.868-.476v-1.63h.854c.48-.005.528.284.562.675l.149-.03a14.363 14.363 0 0 1 0-1.533h-.149c-.038.357-.15.609-.569.604h-.847v-1.86h.985c.714-.004.833.365.863.796l.148-.04a11.604 11.604 0 0 1-.013-.997c-.467.002-1.162.027-1.727.027-.564 0-1.259-.025-1.68-.027v.146h.067c.245 0 .537.043.538.422v3.598c0 .379-.293.42-.538.422h-.066v.145c.4 0 1.193-.026 1.797-.026.605 0 1.379.026 1.822.026ZM50.866 16.052c0-.5-.274-.521-.488-.521h-.123v-.207c.22 0 .645.028 1.064.028.412 0 .742-.028 1.105-.028.865 0 1.635.234 1.635 1.21 0 .617-.412.995-.954 1.209l1.174 1.757c.192.29.329.372.666.412v.207c-.227 0-.447-.027-.673-.027-.213 0-.433.027-.645.027-.529-.694-.983-1.436-1.43-2.226h-.451v1.47c0 .53.246.549.562.549h.123v.207c-.392 0-.788-.027-1.18-.027-.33 0-.653.027-.996.027v-.207h.123c.255 0 .488-.115.488-.37v-3.49Zm.88 1.594h.335c.687 0 1.057-.261 1.057-1.072 0-.61-.39-1.002-1.003-1.002-.206 0-.293.021-.39.028v2.046Z" fill="#fff"/>
  <path d="M54.946 20.148c-.23 0-.449-.027-.675-.027-.21 0-.428.027-.668.016-.526-.691-.978-1.429-1.422-2.214h-.405v1.44c.007.516.214.512.532.52h.154v.265h-.03c-.393 0-.792-.027-1.182-.027-.328 0-.65.027-.994.027h-.03v-.265h.153c.248-.002.456-.11.457-.341v-3.49c-.005-.487-.244-.484-.457-.491h-.153v-.267h.03c.222 0 .646.027 1.064.027.41 0 .74-.027 1.106-.027.865.002 1.662.241 1.664 1.238 0 .621-.41 1.008-.94 1.224l1.154 1.728c.192.285.312.356.646.398l.025.004v.262h-.03Zm-3.2-2.285h.47l.007.016c.448.789.899 1.53 1.405 2.21.21 0 .43-.028.643-.028.22 0 .431.024.645.028v-.15c-.322-.04-.473-.137-.66-.422l-1.196-1.788.034-.014c.537-.212.935-.579.935-1.183 0-.953-.74-1.173-1.603-1.177-.363 0-.692.027-1.106.027-.403 0-.81-.025-1.035-.027v.146h.094c.213 0 .517.035.517.551v3.49c0 .276-.258.401-.517.402h-.094v.145c.33-.001.643-.028.965-.028.385 0 .772.027 1.152.027v-.144h-.094c-.313 0-.592-.04-.592-.582v-1.499h.03Zm0-.188h-.03v-2.103l.026-.002c.094-.008.187-.027.394-.027.626 0 1.032.407 1.033 1.033-.001.82-.395 1.098-1.087 1.099h-.336Zm.336-.06c.68-.005 1.022-.241 1.029-1.04-.004-.6-.377-.972-.975-.974-.186 0-.273.017-.36.025v1.99h.306ZM59.608 18.765l.012-.013v-2.575c0-.564-.39-.646-.596-.646h-.15v-.206c.322 0 .637.027.96.027.282 0 .563-.027.846-.027v.206h-.103c-.289 0-.612.055-.612.872v3.126c0 .24.007.48.04.692h-.26L56.21 16.28v2.83c0 .598.117.803.645.803h.117v.207c-.295 0-.59-.027-.885-.027-.31 0-.626.027-.935.027v-.207h.096c.474 0 .618-.322.618-.871v-2.893a.615.615 0 0 0-.624-.617h-.09v-.206c.26 0 .53.027.79.027.205 0 .405-.027.61-.027l3.057 3.44Z" fill="#fff"/>
  <path d="m60.006 20.251-.283-.01-3.485-3.884v2.752c.008.597.098.767.616.773H57v.266h-.03c-.297 0-.592-.028-.886-.028-.307 0-.624.028-.933.028h-.03v-.265h.125c.454-.002.584-.294.588-.844v-2.89c0-.367-.3-.588-.593-.589h-.12v-.266h.03c.262 0 .53.027.79.027.201 0 .4-.027.631-.017l3.019 3.399v-2.527c-.002-.545-.368-.613-.568-.616h-.181v-.266h.03c.325 0 .641.027.962.027.28 0 .561-.027.844-.027h.03v.266h-.132c-.283.008-.575.033-.582.843v3.125c0 .24.006.478.04.69l.005.033h-.033Zm-.261-.06h.226a4.703 4.703 0 0 1-.037-.663v-3.125c0-.824.348-.9.642-.903h.072v-.145c-.27.002-.541.027-.814.027-.315 0-.622-.025-.933-.027v.145h.122c.212.002.628.095.628.676l-.01 2.597-.013.014-.02.022-3.057-3.454c-.204 0-.403.027-.61.027-.255 0-.511-.025-.761-.027v.145h.06a.648.648 0 0 1 .654.648v2.891c0 .552-.155.902-.648.904h-.066v.145c.296-.001.602-.026.904-.026.288 0 .573.025.857.026v-.145h-.087c-.54 0-.676-.237-.677-.834v-2.906l3.568 3.988Zm-.137-1.426.02-.02-.02.02Zm-.017-.013v-.002l-.006-.006.006.008ZM61.784 19.137c-.07.232-.152.412-.152.535 0 .206.289.24.515.24h.076v.207a15.582 15.582 0 0 0-.832-.027c-.247 0-.493.012-.74.027v-.207h.04c.268 0 .496-.158.597-.447l1.1-3.151c.089-.255.213-.598.255-.853.218-.074.494-.212.624-.294.021-.008.033-.015.054-.015.02 0 .034 0 .05.022.02.054.04.116.061.171l1.264 3.593c.082.24.163.493.252.7.083.192.228.274.455.274h.04v.207a19.484 19.484 0 0 0-.946-.027c-.337 0-.681.012-1.031.027v-.207h.076c.157 0 .426-.027.426-.199 0-.089-.062-.274-.139-.495l-.267-.796h-1.559l-.219.715Zm1.002-3.043h-.014l-.638 1.944h1.283l-.63-1.944Z" fill="#fff"/>
  <path d="M65.442 20.148c-.31-.014-.619-.028-.946-.028-.336 0-.678.014-1.03.028l-.03.002v-.268h.105c.16 0 .395-.037.395-.169.002-.078-.06-.266-.136-.485l-.26-.776h-1.516l-.213.693c-.07.235-.152.416-.151.528.002.168.259.209.486.209h.106v.268l-.031-.002c-.275-.014-.555-.028-.829-.028-.246 0-.494.014-.74.028l-.032.002v-.268H60.691c.256-.001.47-.147.568-.426l1.1-3.152c.09-.255.213-.597.273-.87.215-.074.49-.212.623-.296.02-.006.038-.015.067-.015.016 0 .053.003.075.04l.062.173 1.265 3.592c.081.24.163.495.252.697.08.184.206.256.427.257h.07v.268l-.031-.002Zm-1.947-.061c.34-.012.673-.025 1.001-.025.32 0 .618.013.916.025v-.144h-.01c-.234.002-.397-.09-.481-.293-.09-.208-.173-.463-.254-.704l-1.264-3.591c-.021-.055-.041-.117-.06-.166-.005-.007-.004-.007-.01-.007h-.012c-.014 0-.022.005-.04.01-.132.086-.408.22-.611.274-.042.26-.166.603-.255.857l-1.1 3.153c-.104.298-.344.468-.624.467h-.01v.144c.234-.012.472-.025.71-.025.266 0 .538.013.8.025v-.144h-.045c-.223-.002-.535-.028-.544-.27 0-.137.085-.313.152-.545l.03.01-.03-.01.226-.735h1.601l.276.816c.077.22.14.404.14.505-.01.21-.3.225-.456.23h-.046v.143Zm-1.403-2.02.657-2.003h.037v.03l-.007.001.007-.001v-.03h.02l.653 2.003h-1.367Zm.082-.06h1.202l-.598-1.84-.604 1.84Zm.582-1.905.016-.005-.016.005ZM65.746 15.668c-.515 0-.536.123-.64.624H64.9c.027-.192.062-.384.084-.584.027-.192.04-.383.04-.582h.165c.055.206.228.199.412.199h3.544c.185 0 .356-.007.37-.214l.165.028c-.027.186-.054.37-.075.557-.014.185-.014.37-.014.555l-.206.077c-.013-.254-.047-.66-.508-.66h-1.126v3.654c0 .53.241.59.57.59h.13v.207c-.268 0-.748-.027-1.12-.027-.41 0-.892.027-1.16.027v-.207h.13c.379 0 .571-.034.571-.576v-3.668h-1.126Z" fill="#fff"/>
  <path d="M68.45 20.148c-.269 0-.75-.027-1.118-.027-.411 0-.892.027-1.161.027h-.03v-.266h.16c.379-.009.53-.013.54-.546v-3.638h-1.096v-.06h1.156v3.698c0 .551-.223.605-.6.607h-.1v.146c.271-.002.732-.027 1.13-.027.36 0 .818.025 1.09.027v-.146h-.102c-.33-.002-.597-.081-.598-.621v-3.685h1.156c.46.002.521.394.534.649l.15-.055c0-.18 0-.359.014-.539.019-.176.045-.353.07-.528l-.104-.017c-.031.2-.225.21-.396.208h-3.579c-.162.002-.337-.008-.4-.2h-.112c-.002.19-.015.375-.042.557-.018.19-.052.371-.078.552h.148c.09-.479.15-.634.663-.627v.06c-.509.01-.497.095-.61.603l-.005.023h-.264l.004-.034c.028-.194.062-.385.082-.584.029-.192.042-.382.042-.58v-.03h.217l.006.022c.048.173.173.174.349.177l.034.001h3.545c.19-.004.328-.006.34-.185l.002-.033.032.006.195.03-.005.03c-.028.185-.055.37-.076.555-.013.182-.013.369-.013.553v.022l-.02.008-.243.088-.002-.04c-.017-.258-.044-.631-.478-.631H67.78v3.624c.007.518.213.554.54.56h.16v.266h-.03ZM69.933 19.912h.096c.248 0 .507-.033.507-.391v-3.598c0-.358-.26-.392-.507-.392h-.096v-.206c.268 0 .68.027 1.015.027.345 0 .757-.027 1.08-.027v.206h-.097c-.247 0-.509.034-.509.392v3.598c0 .358.262.39.51.39h.095v.208c-.33 0-.742-.027-1.084-.027-.337 0-.742.027-1.01.027v-.207Z" fill="#fff"/>
  <path d="M72.028 20.148c-.332 0-.743-.028-1.085-.028-.336 0-.742.028-1.01.028h-.03v-.266h.126c.249-.003.476-.025.477-.36v-3.599c0-.335-.228-.358-.477-.363h-.126v-.265h.03c.268 0 .68.027 1.015.027.343 0 .755-.027 1.08-.027h.03v.265h-.126c-.251.005-.476.028-.48.363v3.598c.004.336.229.358.48.362h.125v.265h-.029Zm-.03-.06v-.145h-.066c-.246 0-.538-.043-.538-.422v-3.598c0-.38.292-.422.538-.422h.065v-.146c-.317.002-.714.027-1.049.027-.325 0-.718-.025-.985-.027v.146h.067c.244 0 .536.043.537.422v3.598c0 .379-.293.422-.537.422h-.067v.145c.265-.003.654-.026.98-.026.333 0 .73.025 1.054.026ZM74.766 15.222c1.464 0 2.63.907 2.63 2.37 0 1.58-1.132 2.63-2.594 2.63-1.457 0-2.569-.99-2.569-2.466 0-1.428 1.105-2.534 2.533-2.534Zm.104 4.697c1.332 0 1.564-1.175 1.564-2.176 0-1.004-.54-2.22-1.681-2.22-1.202 0-1.559 1.072-1.559 1.992 0 1.23.563 2.404 1.676 2.404Z" fill="#fff"/>
  <path d="M72.202 17.756c.003-1.445 1.121-2.562 2.564-2.564v.059c-1.412 0-2.504 1.092-2.506 2.505.004 1.46 1.1 2.434 2.541 2.435 1.448 0 2.565-1.036 2.567-2.6-.001-1.444-1.15-2.338-2.602-2.34v-.06c1.475.002 2.657.918 2.66 2.4-.001 1.596-1.15 2.657-2.625 2.66-1.468-.003-2.596-1.002-2.599-2.495Zm.962-.241c.002-.924.363-2.022 1.589-2.022 1.165.003 1.71 1.24 1.712 2.25-.002 1.001-.238 2.205-1.595 2.205V19.89c1.306-.002 1.532-1.146 1.535-2.147 0-.996-.536-2.188-1.652-2.19-1.178.002-1.527 1.047-1.53 1.962.002 1.223.56 2.372 1.647 2.375V19.948c-1.14-.001-1.704-1.197-1.706-2.433ZM82.025 18.765l.013-.013v-2.575c0-.564-.392-.646-.598-.646h-.149v-.206c.322 0 .638.027.96.027.282 0 .563-.027.845-.027v.206h-.103c-.288 0-.611.055-.611.872v3.126c0 .24.006.48.041.692h-.26l-3.538-3.942v2.83c0 .598.117.803.645.803h.118v.207c-.296 0-.59-.027-.886-.027-.309 0-.626.027-.935.027v-.207h.097c.475 0 .617-.322.617-.871v-2.893a.614.614 0 0 0-.624-.617h-.09v-.206c.261 0 .53.027.79.027.206 0 .405-.027.611-.027l3.056 3.44Z" fill="#fff"/>
  <path d="m82.423 20.251-.284-.01-3.484-3.884v2.752c.007.597.098.766.614.773h.149v.266h-.03c-.298 0-.593-.027-.886-.027-.308 0-.623.027-.935.027h-.029v-.266h.126c.453-.002.583-.293.588-.84v-2.894a.587.587 0 0 0-.595-.588h-.119v-.265h.029c.263 0 .53.027.79.027.204 0 .402-.027.634-.016l3.017 3.397v-2.526c-.002-.546-.367-.612-.569-.617h-.18v-.265h.031c.323 0 .64.027.96.027.281 0 .561-.026.846-.026h.03v.264h-.134c-.282.008-.574.034-.58.843v3.125c0 .24.005.48.038.69l.006.033h-.033Zm-.26-.06h.224a4.723 4.723 0 0 1-.035-.663v-3.125c0-.826.346-.9.64-.903h.075v-.145c-.271.002-.542.027-.817.027-.313 0-.62-.025-.93-.027v.145h.12c.213.002.627.096.627.677l-.008 2.596-.013.014-.022.022-3.056-3.454c-.202 0-.403.027-.611.027-.253 0-.51-.025-.76-.027v.145h.06c.322.003.654.246.654.648v2.893c0 .55-.153.9-.647.902h-.068v.145c.298-.001.604-.026.906-.026.286 0 .57.025.856.026v-.145h-.089c-.539 0-.674-.237-.674-.834v-2.907l3.568 3.99Zm-.139-1.426.022-.02-.022.02Zm-.016-.013v-.002l-.005-.006.005.008ZM84.2 19.137c-.067.232-.15.412-.15.535 0 .206.288.24.514.24h.076v.207a15.6 15.6 0 0 0-.831-.027c-.248 0-.495.012-.74.027v-.207h.038c.27 0 .497-.158.599-.447l1.1-3.151c.088-.255.212-.598.252-.853.22-.074.495-.212.626-.294.02-.008.034-.015.055-.015.02 0 .033 0 .047.022l.063.171 1.263 3.593c.082.24.164.493.255.7.082.192.227.274.452.274h.042v.207c-.31-.015-.618-.027-.948-.027-.336 0-.68.012-1.03.027v-.207h.076c.157 0 .426-.027.426-.199 0-.089-.062-.274-.139-.495l-.267-.796H84.42l-.22.715Zm1.004-3.043h-.014l-.64 1.944h1.285l-.631-1.944Z" fill="#fff"/>
  <path d="M87.858 20.148c-.309-.012-.617-.027-.946-.027-.334 0-.678.015-1.029.027l-.03.002v-.267h.104c.16 0 .397-.038.397-.17.002-.078-.06-.265-.137-.485l-.26-.776H84.44l-.213.693c-.068.236-.15.416-.149.527 0 .169.257.21.484.21h.105v.268l-.03-.002c-.275-.012-.556-.027-.83-.027-.246 0-.492.015-.74.027l-.03.002v-.267h.07c.255-.002.47-.149.57-.427l1.099-3.152c.087-.255.211-.597.272-.87.216-.075.491-.212.625-.296.018-.006.036-.014.065-.014a.077.077 0 0 1 .075.04c.02.054.04.116.063.172l1.263 3.592c.082.24.164.494.253.699.08.182.206.254.425.256h.072v.267l-.032-.002Zm-1.946-.06c.34-.013.674-.027 1-.027.32 0 .62.014.918.026v-.144h-.012c-.232 0-.395-.09-.48-.293-.09-.208-.172-.463-.254-.703l-1.264-3.592-.058-.164c-.006-.009-.005-.009-.01-.009h-.013c-.015 0-.022.005-.04.01a2.63 2.63 0 0 1-.611.274c-.043.26-.167.603-.256.857l-1.1 3.153c-.104.298-.344.468-.625.467h-.01v.144c.236-.012.473-.026.712-.026.266 0 .537.014.801.026v-.144h-.047c-.223-.003-.536-.027-.544-.271.001-.136.086-.311.152-.544l.028.01-.028-.01.227-.735h1.601l.275.816c.076.221.138.404.138.504-.01.211-.298.226-.455.23h-.045v.145Zm-1.403-2.021.659-2.003h.035v.03l-.007.001.007-.001v-.03h.022l.649 2.003h-1.365Zm.082-.06h1.202l-.598-1.839-.603 1.84Zm.584-1.905.014-.005-.014.005ZM89.591 19.446c0 .274.19.356.411.384.281.021.59.021.908-.013a.983.983 0 0 0 .658-.371c.11-.152.171-.344.213-.495h.199c-.076.391-.172.777-.255 1.168-.603 0-1.208-.027-1.812-.027-.605 0-1.208.027-1.812.027v-.207h.094c.248 0 .517-.034.517-.46v-3.53c0-.357-.269-.391-.517-.391H88.1v-.206c.362 0 .72.027 1.083.027.352 0 .695-.027 1.045-.027v.206h-.173c-.26 0-.465.008-.465.37v3.545Z" fill="#fff"/>
  <path d="M91.726 20.148c-.606 0-1.21-.027-1.812-.027-.605 0-1.21.027-1.815.027h-.029v-.265h.125c.25-.006.484-.023.487-.43v-3.531c-.003-.334-.236-.357-.487-.362h-.125v-.265h.03c.365 0 .722.027 1.085.027.349 0 .692-.027 1.044-.027h.029v.265H90.057c-.266.008-.432-.005-.437.342v3.544c.002.256.17.325.384.355a4.863 4.863 0 0 0 .901-.013.956.956 0 0 0 .639-.359c.105-.146.166-.335.207-.485l.007-.023h.258l-.006.036c-.078.393-.172.777-.255 1.168l-.006.023h-.023Zm-.025-.06c.08-.372.17-.736.243-1.108h-.14c-.044.15-.105.334-.213.484a1.017 1.017 0 0 1-.68.382 5.192 5.192 0 0 1-.913.014c-.223-.025-.44-.12-.439-.414V15.9c0-.38.242-.4.498-.4h.142v-.146c-.339.002-.672.027-1.014.027-.356 0-.703-.025-1.056-.027v.146h.066c.245 0 .545.042.545.42v3.532c0 .444-.298.49-.545.49h-.066v.145c.594 0 1.188-.026 1.785-.026.596 0 1.193.026 1.787.026Z" fill="#fff"/>
</svg>
