<svg width="39" height="24" fill="none" xmlns="http://www.w3.org/2000/svg">
  <path d="M24.662 21.433H14.163V2.564h10.5v18.869Z" fill="#6C6BBD"/>
  <path d="M14.83 12a11.981 11.981 0 0 1 4.584-9.435A11.946 11.946 0 0 0 11.997 0C5.372 0 0 5.372 0 12s5.371 12 11.997 12c2.691.004 5.304-.9 7.417-2.566A11.98 11.98 0 0 1 14.83 12Z" fill="#EB001B"/>
  <path d="M38.829 12a12 12 0 0 1-19.416 9.433A11.979 11.979 0 0 0 23.996 12a11.98 11.98 0 0 0-4.582-9.434 12 12 0 0 1 19.415 9.433V12Z" fill="#0099DF"/>
</svg>
