<svg width="39" height="24" fill="none" xmlns="http://www.w3.org/2000/svg">
  <path d="M24.665 21.433h-10.5V2.566h10.5v18.868Z" fill="#FF5F00"/>
  <path d="M14.83 12a11.98 11.98 0 0 1 4.584-9.434A11.948 11.948 0 0 0 11.998 0C5.372 0 0 5.373 0 12c0 6.628 5.372 12 11.998 12 2.69.004 5.303-.9 7.416-2.566A11.98 11.98 0 0 1 14.83 12Z" fill="#EB001B"/>
  <path d="M38.829 12c0 6.628-5.372 12-11.998 12-2.691.004-5.304-.9-7.417-2.566A11.978 11.978 0 0 0 23.998 12c0-3.828-1.793-7.237-4.584-9.434A11.951 11.951 0 0 1 26.83 0C33.457 0 38.83 5.373 38.83 12" fill="#F79E1B"/>
</svg>
