<svg width="38" height="24" fill="none" xmlns="http://www.w3.org/2000/svg">
  <g clip-path="url(#a)">
    <path d="M35.608.007 26.385.005h-.024c-1.267.04-2.845 1.056-3.133 2.31l-4.362 19.3c-.287 1.264.495 2.294 1.753 2.312h9.69c1.238-.06 2.442-1.066 2.724-2.304l4.362-19.3c.292-1.278-.508-2.316-1.787-2.316Z" fill="#01798A"/>
    <path d="m18.867 21.614 4.361-19.3c.288-1.253 1.866-2.27 3.133-2.308L22.694.004 16.087.002c-1.271.026-2.87 1.05-3.157 2.312l-4.363 19.3c-.289 1.265.494 2.294 1.752 2.313h10.3c-1.258-.018-2.04-1.048-1.752-2.313Z" fill="#024381"/>
    <path d="m8.567 21.614 4.363-19.3c.287-1.262 1.886-2.286 3.157-2.312L7.622 0C6.345 0 4.706 1.035 4.414 2.314l-4.363 19.3a2.419 2.419 0 0 0-.05.346v.358c.086.922.79 1.594 1.802 1.61h8.515c-1.257-.02-2.04-1.049-1.751-2.314Z" fill="#DD0228"/>
    <path d="M16.265 14.066h.16c.147 0 .246-.05.293-.148l.416-.622h1.115l-.232.41h1.336l-.17.627h-1.59c-.183.276-.409.405-.68.39h-.828l.18-.657Zm-.183.9h2.928l-.187.681h-1.177l-.18.658h1.146l-.187.683H17.28l-.265.972c-.067.163.02.236.258.22h.934l-.173.633H16.24c-.34 0-.457-.194-.35-.584l.34-1.241h-.732l.186-.682h.732l.18-.659h-.7l.186-.682Zm4.674-1.675-.047.4s.553-.416 1.054-.416h1.854l-.709 2.567c-.059.293-.31.439-.756.439h-2.1l-.493 1.802c-.029.096.012.146.117.146h.414l-.152.559h-1.05c-.404 0-.572-.121-.506-.365l1.391-5.132h.983Zm1.57.725H20.67l-.198.693s.275-.2.736-.206c.46-.008.983 0 .983 0l.133-.487Zm-.6 1.607c.122.016.19-.032.199-.147l.101-.364h-1.657l-.139.51h1.496Zm-1.118.829h.955l-.018.413h.255c.128 0 .192-.041.192-.122l.075-.268h.794l-.106.39c-.09.325-.327.495-.714.511h-.508l-.003.707c-.009.113.093.17.304.17h.478l-.154.56H21.01c-.322.015-.48-.138-.476-.463l.073-1.898ZM9.034 9.872c-.13.635-.43 1.123-.895 1.469-.462.34-1.057.51-1.786.51-.686 0-1.189-.174-1.51-.523-.223-.249-.333-.564-.333-.946 0-.158.019-.327.056-.51l.777-3.744h1.173L5.75 9.83a1.191 1.191 0 0 0-.032.284.724.724 0 0 0 .141.466c.14.18.365.27.679.27.36 0 .658-.089.889-.267.23-.176.381-.427.45-.753l.768-3.703h1.167l-.778 3.745ZM13.96 8.4h.919l-.72 3.342h-.917L13.96 8.4Zm.29-1.218h.926l-.173.812h-.927l.173-.812Zm1.442 4.306c-.24-.23-.362-.54-.363-.933a2.523 2.523 0 0 1 .049-.471c.11-.543.341-.974.698-1.292a1.87 1.87 0 0 1 1.292-.48c.413 0 .74.116.98.347.24.232.36.545.36.943 0 .069-.006.147-.015.232-.01.084-.023.167-.038.25-.107.535-.338.961-.695 1.273-.358.314-.787.47-1.287.47-.415.001-.741-.112-.98-.34Zm1.75-.662c.163-.175.279-.442.35-.796a1.919 1.919 0 0 0 .033-.329c0-.206-.052-.366-.157-.479-.105-.114-.254-.17-.447-.17a.803.803 0 0 0-.624.268c-.164.179-.28.45-.353.81-.01.055-.018.11-.026.165a1.213 1.213 0 0 0-.006.154c0 .205.053.363.158.475.105.112.253.167.448.167a.808.808 0 0 0 .625-.265Z" fill="#fff"/>
    <path d="M26.382.005 22.694.004l3.667.002.021-.001Z" fill="#E02F41"/>
    <path d="M22.694.004 16.136 0a.772.772 0 0 0-.05.002l6.607.002Z" fill="#2E4F7D"/>
    <path d="m24.668 14.094.22-.78h1.12l-.047.287s.572-.287.984-.287h1.385l-.22.78h-.218l-1.045 3.677h.218l-.207.73h-.218l-.09.317h-1.085l.09-.317h-2.14l.21-.73h.213l1.046-3.677h-.216Zm1.208 0-.285.995s.488-.187.908-.24c.093-.348.214-.755.214-.755h-.837Zm-.417 1.462-.286 1.042s.54-.266.911-.289c.107-.403.215-.753.215-.753h-.84Zm.21 2.215.214-.756h-.836l-.216.756h.837Zm2.708-4.505h1.053l.045.389c-.007.099.051.146.176.146h.186l-.188.658h-.774c-.295.015-.447-.098-.461-.341l-.037-.852Zm-.309 1.412h3.41l-.2.707h-1.085l-.186.657h1.085l-.202.705h-1.208l-.273.414H30l.137.827c.016.083.089.123.214.123h.183l-.192.682h-.65c-.338.016-.512-.097-.526-.34l-.157-.757-.538.805a.582.582 0 0 1-.586.317h-.993l.193-.682h.31c.127 0 .233-.057.328-.171l.843-1.218H27.48l.201-.705h1.178l.187-.657h-1.179l.201-.707Zm-17.953-6.28h.828l-.095.483.12-.138a1.29 1.29 0 0 1 .98-.43c.348 0 .6.101.757.305.155.204.198.485.124.847l-.456 2.277h-.852l.412-2.064c.043-.213.031-.372-.034-.475-.065-.102-.189-.153-.367-.153a.796.796 0 0 0-.554.204c-.15.137-.25.326-.299.568l-.38 1.92h-.853l.669-3.344Zm9.5 0h.83l-.095.483.118-.138c.269-.288.596-.43.98-.43.349 0 .6.101.757.305.155.204.2.485.124.847l-.455 2.277h-.852l.412-2.064c.042-.213.03-.372-.035-.475-.067-.102-.188-.153-.366-.153a.802.802 0 0 0-.554.204.999.999 0 0 0-.298.568l-.382 1.92h-.852l.668-3.344Zm4.099-2.073h2.407c.463 0 .82.105 1.067.31.245.21.367.509.367.898v.012c0 .074-.005.158-.012.249a3.798 3.798 0 0 1-.047.274c-.106.516-.352.93-.732 1.245a2.071 2.071 0 0 1-1.355.47h-1.29l-.4 1.96h-1.117l1.112-5.418Zm.601 2.517h1.07c.28 0 .501-.065.663-.193.16-.13.266-.328.325-.596l.022-.136c.004-.039.008-.078.008-.115 0-.192-.068-.331-.205-.418-.136-.089-.35-.13-.647-.13h-.91l-.326 1.588Zm8.243 3.547c-.354.751-.69 1.19-.888 1.393-.198.201-.59.67-1.535.635l.082-.574c.795-.245 1.224-1.348 1.47-1.837l-.293-3.599.615-.008h.516l.055 2.258.967-2.258h.979l-1.968 3.99ZM29.82 8.67l-.389.267c-.406-.318-.777-.514-1.493-.182-.975.452-1.79 3.92.895 2.778l.153.181 1.057.027.693-3.151-.916.08Zm-.6 1.723c-.17.5-.55.831-.846.737-.297-.092-.403-.575-.231-1.076.17-.502.551-.832.845-.738.297.092.404.575.231 1.077Z" fill="#fff"/>
  </g>
  <defs>
    <clipPath id="a">
      <path fill="#fff" d="M0 0h37.457v24H0z"/>
    </clipPath>
  </defs>
</svg>
